<svg width="592" height="650" viewBox="0 0 592 650" fill="none" xmlns="http://www.w3.org/2000/svg">
<path d="M1.69116 187.446L148.224 280.862L211.813 241.84L130.253 188.628L296.139 82.2043L462.024 188.628L380.464 241.84L442.671 280.862L589.204 188.628L296.139 0.612671L1.69116 187.446Z" fill="#88B0F7" stroke="#88B0F7"/>
<path d="M146.841 554.017L148.284 282.19L213.196 244.205V514.845L146.841 554.017Z" fill="#3B7EF1" stroke="#3B7EF1"/>
<path d="M177.254 215.825L134.4 188.628L294.756 85.7518V141.329L177.254 215.825Z" fill="#3B7EF1" stroke="#3B7EF1"/>
<path d="M507.643 299.782L590.586 246.57V190.993L444.053 283.227V555.199L589.204 461.782V405.023L507.643 457.053V299.782Z" fill="#3B7EF1"/>
<path d="M590.586 189.811V190.993M590.586 190.993V246.57L507.643 299.782V457.053L589.204 405.023V461.782L444.053 555.199V283.227L590.586 190.993Z" stroke="#3B7EF1"/>
<path d="M589.204 402.658L510.408 452.323V373.096L526.996 362.454L589.204 402.658Z" fill="#88B0F7" stroke="#88B0F7"/>
<path d="M65.2807 362.454L3.07349 402.658L81.8693 453.505V374.278L65.2807 362.454Z" fill="#88B0F7" stroke="#88B0F7"/>
<path d="M296.138 296.234L233.931 335.256L296.138 375.461L356.963 335.256L296.138 296.234Z" fill="#88B0F7" stroke="#88B0F7"/>
<path d="M296.139 648.616L297.521 377.826L358.346 337.621L359.728 608.411L296.139 648.616Z" fill="#3B7EF1" stroke="#3B7EF1"/>
</svg>
